<svg width="22" height="22" viewBox="0 0 22 22" fill="none" xmlns="http://www.w3.org/2000/svg">
<path d="M6.36196 1.83333C6.74317 1.83333 7.0522 2.13052 7.0522 2.49712V3.83613C7.66445 3.8247 8.35072 3.8247 9.12288 3.8247H12.8041C13.5762 3.8247 14.2625 3.8247 14.8748 3.83613V2.49712C14.8748 2.13052 15.1838 1.83333 15.565 1.83333C15.9462 1.83333 16.2553 2.13052 16.2553 2.49712V3.89486C17.5799 3.99686 18.4495 4.24721 19.0883 4.86162C19.7273 5.47602 19.9876 6.31231 20.0936 7.5862L20.1667 8.24999H2.68089H1.83337V7.5862C1.93944 6.31231 2.19977 5.47602 2.83864 4.86162C3.47752 4.24721 4.34711 3.99686 5.67173 3.89486V2.49712C5.67173 2.13052 5.98076 1.83333 6.36196 1.83333Z" fill="#FF4545"/>
<path opacity="0.5" d="M20.1662 12.8334V11.0001C20.1662 10.2309 20.1632 8.85983 20.1514 8.25H1.8417C1.82986 8.85983 1.83286 10.2309 1.83286 11.0001V12.8334C1.83286 16.2904 1.83286 18.0188 2.9068 19.0928C3.98074 20.1668 5.70922 20.1668 9.16619 20.1668H12.8328C16.2899 20.1668 18.0183 20.1668 19.0923 19.0928C20.1662 18.0188 20.1662 16.2904 20.1662 12.8334Z" fill="#FF4545"/>
</svg>
