<svg width="22" height="22" viewBox="0 0 22 22" fill="none" xmlns="http://www.w3.org/2000/svg">
<path fill-rule="evenodd" clip-rule="evenodd" d="M11 19.25C15.5564 19.25 19.25 15.5564 19.25 11C19.25 6.44365 15.5564 2.75 11 2.75C6.44365 2.75 2.75 6.44365 2.75 11C2.75 15.5564 6.44365 19.25 11 19.25ZM11.9167 5.95833C11.9167 5.45208 11.5063 5.04167 11 5.04167C10.4937 5.04167 10.0833 5.45208 10.0833 5.95833V10.7708C10.0833 11.4037 10.5963 11.9167 11.2292 11.9167H14.2083C14.7146 11.9167 15.125 11.5063 15.125 11C15.125 10.4937 14.7146 10.0833 14.2083 10.0833H11.9167V5.95833Z" fill="#FF4545"/>
</svg>
